<svg width="1280" height="720" xmlns="http://www.w3.org/2000/svg" xmlns:xlink="http://www.w3.org/1999/xlink" overflow="hidden"><g><rect x="0" y="0" width="1280" height="720" fill="#FFFFFF"/><g><g><g><path d="M304.578 240C305.959 240 307.078 241.119 307.078 242.5L307.078 285.5C307.078 286.881 305.959 288 304.578 288L241.04 288C239.659 288 238.54 286.881 238.54 285.5L238.54 242.5C238.54 241.119 239.659 240 241.04 240Z" stroke="#181818" stroke-width="0.5" fill="#F1F1F1"/><path d="M264.54 256C264.54 262.075 259.615 267 253.54 267 247.465 267 242.54 262.075 242.54 256 242.54 249.925 247.465 245 253.54 245 259.615 245 264.54 249.925 264.54 256Z" stroke="#181818" fill="#B4A7E5"/><path d="M249.462 251.766 249.462 249.609 256.852 249.609 256.852 251.766 254.384 251.766 254.384 259.844 256.852 259.844 256.852 262 249.462 262 249.462 259.844 251.931 259.844 251.931 251.766 249.462 251.766Z"/><text font-family="Arial,Arial_MSFontService,sans-serif" font-style="italic" font-weight="400" font-size="14" transform="translate(267.54 261)">Node</text><path d="M239.54 272 306.078 272" stroke="#181818" stroke-width="0.5" fill="none"/><path d="M239.54 280 306.078 280" stroke="#181818" stroke-width="0.5" fill="none"/><path d="M182.123 348C183.504 348 184.623 349.119 184.623 350.5L184.623 393.5C184.623 394.881 183.504 396 182.123 396L95.5 396C94.1193 396 93 394.881 93 393.5L93 350.5C93 349.119 94.1193 348 95.5 348Z" stroke="#181818" stroke-width="0.5" fill="#F1F1F1"/><path d="M119 364C119 370.075 114.075 375 108 375 101.925 375 97 370.075 97 364 97 357.925 101.925 353 108 353 114.075 353 119 357.925 119 364Z" stroke="#181818" fill="#ADD1B2"/><path d="M110.969 369.641C110.583 369.839 110.177 369.984 109.75 370.078 109.323 370.182 108.875 370.234 108.406 370.234 106.74 370.234 105.464 369.688 104.578 368.594 103.703 367.49 103.266 365.896 103.266 363.812 103.266 361.729 103.703 360.135 104.578 359.031 105.464 357.927 106.74 357.375 108.406 357.375 108.875 357.375 109.323 357.427 109.75 357.531 110.188 357.635 110.594 357.786 110.969 357.984L110.969 360.703C110.552 360.318 110.146 360.036 109.75 359.859 109.354 359.672 108.948 359.578 108.531 359.578 107.635 359.578 106.958 359.938 106.5 360.656 106.042 361.365 105.812 362.417 105.812 363.812 105.812 365.208 106.042 366.266 106.5 366.984 106.958 367.693 107.635 368.047 108.531 368.047 108.948 368.047 109.354 367.958 109.75 367.781 110.146 367.594 110.552 367.307 110.969 366.922L110.969 369.641Z"/><text font-family="Arial,Arial_MSFontService,sans-serif" font-weight="400" font-size="14" transform="translate(122 369)">Program</text><path d="M94 380 183.623 380" stroke="#181818" stroke-width="0.5" fill="none"/><path d="M94 388 183.623 388" stroke="#181818" stroke-width="0.5" fill="none"/><path d="M323.151 348C324.532 348 325.651 349.119 325.651 350.5L325.651 393.5C325.651 394.881 324.532 396 323.151 396L222.48 396C221.099 396 219.98 394.881 219.98 393.5L219.98 350.5C219.98 349.119 221.099 348 222.48 348Z" stroke="#181818" stroke-width="0.5" fill="#F1F1F1"/><path d="M245.98 364C245.98 370.075 241.055 375 234.98 375 228.905 375 223.98 370.075 223.98 364 223.98 357.925 228.905 353 234.98 353 241.055 353 245.98 357.925 245.98 364Z" stroke="#181818" fill="#B4A7E5"/><path d="M230.902 359.766 230.902 357.609 238.292 357.609 238.292 359.766 235.824 359.766 235.824 367.844 238.292 367.844 238.292 370 230.902 370 230.902 367.844 233.371 367.844 233.371 359.766 230.902 359.766Z"/><text font-family="Arial,Arial_MSFontService,sans-serif" font-style="italic" font-weight="400" font-size="14" transform="translate(248.98 369)">Statement</text><path d="M220.98 380 324.651 380" stroke="#181818" stroke-width="0.5" fill="none"/><path d="M220.98 388 324.651 388" stroke="#181818" stroke-width="0.5" fill="none"/><path d="M466.463 348C467.843 348 468.963 349.119 468.963 350.5L468.963 393.5C468.963 394.881 467.843 396 466.463 396L363.16 396C361.779 396 360.66 394.881 360.66 393.5L360.66 350.5C360.66 349.119 361.779 348 363.16 348Z" stroke="#181818" stroke-width="0.5" fill="#F1F1F1"/><path d="M386.66 364C386.66 370.075 381.735 375 375.66 375 369.585 375 364.66 370.075 364.66 364 364.66 357.925 369.585 353 375.66 353 381.735 353 386.66 357.925 386.66 364Z" stroke="#181818" fill="#B4A7E5"/><path d="M371.582 359.766 371.582 357.609 378.973 357.609 378.973 359.766 376.504 359.766 376.504 367.844 378.973 367.844 378.973 370 371.582 370 371.582 367.844 374.051 367.844 374.051 359.766 371.582 359.766Z"/><text font-family="Arial,Arial_MSFontService,sans-serif" font-style="italic" font-weight="400" font-size="14" transform="translate(389.66 369)">Expression</text><path d="M361.66 380 467.963 380" stroke="#181818" stroke-width="0.5" fill="none"/><path d="M361.66 388 467.963 388" stroke="#181818" stroke-width="0.5" fill="none"/><path d="M208.441 464.15C209.822 464.15 210.941 465.269 210.941 466.65L210.941 509.65C210.941 511.031 209.822 512.15 208.441 512.15L145.19 512.15C143.809 512.15 142.69 511.031 142.69 509.65L142.69 466.65C142.69 465.269 143.809 464.15 145.19 464.15Z" stroke="#181818" stroke-width="0.5" fill="#F1F1F1"/><path d="M168.69 480.15C168.69 486.225 163.765 491.15 157.69 491.15 151.615 491.15 146.69 486.225 146.69 480.15 146.69 474.075 151.615 469.15 157.69 469.15 163.765 469.15 168.69 474.075 168.69 480.15Z" stroke="#181818" fill="#ADD1B2"/><path d="M160.659 485.791C160.273 485.989 159.867 486.134 159.44 486.228 159.013 486.332 158.565 486.384 158.096 486.384 156.43 486.384 155.154 485.838 154.268 484.744 153.393 483.64 152.956 482.046 152.956 479.962 152.956 477.879 153.393 476.285 154.268 475.181 155.154 474.077 156.43 473.525 158.096 473.525 158.565 473.525 159.013 473.577 159.44 473.681 159.878 473.785 160.284 473.936 160.659 474.134L160.659 476.853C160.242 476.468 159.836 476.186 159.44 476.009 159.044 475.822 158.638 475.728 158.221 475.728 157.325 475.728 156.648 476.087 156.19 476.806 155.732 477.515 155.503 478.567 155.503 479.962 155.503 481.358 155.732 482.416 156.19 483.134 156.648 483.843 157.325 484.197 158.221 484.197 158.638 484.197 159.044 484.108 159.44 483.931 159.836 483.744 160.242 483.457 160.659 483.072L160.659 485.791Z"/><text font-family="Arial,Arial_MSFontService,sans-serif" font-weight="400" font-size="14" transform="translate(171.69 485)">Input</text><path d="M143.69 496.15 209.941 496.15" stroke="#181818" stroke-width="0.5" fill="none"/><path d="M143.69 504.15 209.941 504.15" stroke="#181818" stroke-width="0.5" fill="none"/><path d="M307.54 464.15C308.921 464.15 310.04 465.269 310.04 466.65L310.04 509.65C310.04 511.031 308.921 512.15 307.54 512.15L248.09 512.15C246.709 512.15 245.59 511.031 245.59 509.65L245.59 466.65C245.59 465.269 246.709 464.15 248.09 464.15Z" stroke="#181818" stroke-width="0.5" fill="#F1F1F1"/><path d="M271.59 480.15C271.59 486.225 266.665 491.15 260.59 491.15 254.515 491.15 249.59 486.225 249.59 480.15 249.59 474.075 254.515 469.15 260.59 469.15 266.665 469.15 271.59 474.075 271.59 480.15Z" stroke="#181818" fill="#ADD1B2"/><path d="M263.559 485.791C263.173 485.989 262.767 486.134 262.34 486.228 261.913 486.332 261.465 486.384 260.996 486.384 259.33 486.384 258.054 485.838 257.168 484.744 256.293 483.64 255.856 482.046 255.856 479.962 255.856 477.879 256.293 476.285 257.168 475.181 258.054 474.077 259.33 473.525 260.996 473.525 261.465 473.525 261.913 473.577 262.34 473.681 262.778 473.785 263.184 473.936 263.559 474.134L263.559 476.853C263.142 476.468 262.736 476.186 262.34 476.009 261.944 475.822 261.538 475.728 261.121 475.728 260.225 475.728 259.548 476.087 259.09 476.806 258.632 477.515 258.402 478.567 258.402 479.962 258.402 481.358 258.632 482.416 259.09 483.134 259.548 483.843 260.225 484.197 261.121 484.197 261.538 484.197 261.944 484.108 262.34 483.931 262.736 483.744 263.142 483.457 263.559 483.072L263.559 485.791Z"/><text font-family="Arial,Arial_MSFontService,sans-serif" font-weight="400" font-size="14" transform="translate(274.59 485)">Print</text><path d="M246.59 496.15 309.04 496.15" stroke="#181818" stroke-width="0.5" fill="none"/><path d="M246.59 504.15 309.04 504.15" stroke="#181818" stroke-width="0.5" fill="none"/><path d="M463.275 456C464.655 456 465.775 457.119 465.775 458.5L465.775 517.797C465.775 519.178 464.655 520.297 463.275 520.297L356.34 520.297C354.959 520.297 353.84 519.178 353.84 517.797L353.84 458.5C353.84 457.119 354.959 456 356.34 456Z" stroke="#181818" stroke-width="0.5" fill="#F1F1F1"/><path d="M389.814 472C389.814 478.075 384.889 483 378.814 483 372.739 483 367.814 478.075 367.814 472 367.814 465.925 372.739 461 378.814 461 384.889 461 389.814 465.925 389.814 472Z" stroke="#181818" fill="#ADD1B2"/><path d="M381.783 477.641C381.397 477.839 380.991 477.984 380.564 478.078 380.137 478.182 379.689 478.234 379.22 478.234 377.553 478.234 376.277 477.688 375.392 476.594 374.517 475.49 374.079 473.896 374.079 471.812 374.079 469.729 374.517 468.135 375.392 467.031 376.277 465.927 377.553 465.375 379.22 465.375 379.689 465.375 380.137 465.427 380.564 465.531 381.001 465.635 381.408 465.786 381.783 465.984L381.783 468.703C381.366 468.318 380.96 468.036 380.564 467.859 380.168 467.672 379.762 467.578 379.345 467.578 378.449 467.578 377.772 467.938 377.314 468.656 376.855 469.365 376.626 470.417 376.626 471.812 376.626 473.208 376.855 474.266 377.314 474.984 377.772 475.693 378.449 476.047 379.345 476.047 379.762 476.047 380.168 475.958 380.564 475.781 380.96 475.594 381.366 475.307 381.783 474.922L381.783 477.641Z"/><text font-family="Arial,Arial_MSFontService,sans-serif" font-weight="400" font-size="14" transform="translate(395.03 477)">Variable</text><path d="M354.84 488 464.775 488" stroke="#181818" stroke-width="0.5" fill="none"/><path d="M367.84 501.648C367.84 503.305 366.497 504.648 364.84 504.648 363.183 504.648 361.84 503.305 361.84 501.648 361.84 499.992 363.183 498.648 364.84 498.648 366.497 498.648 367.84 499.992 367.84 501.648Z" stroke="#038048" fill="none"/><text font-family="Arial,Arial_MSFontService,sans-serif" font-weight="400" font-size="14" transform="translate(373.84 505)">String name</text><path d="M354.84 512.297 464.775 512.297" stroke="#181818" stroke-width="0.5" fill="none"/><path d="M630.532 456C631.913 456 633.032 457.119 633.032 458.5L633.032 517.797C633.032 519.178 631.913 520.297 630.532 520.297L503.09 520.297C501.709 520.297 500.59 519.178 500.59 517.797L500.59 458.5C500.59 457.119 501.709 456 503.09 456Z" stroke="#181818" stroke-width="0.5" fill="#F1F1F1"/><path d="M538.979 472C538.979 478.075 534.054 483 527.979 483 521.903 483 516.979 478.075 516.979 472 516.979 465.925 521.903 461 527.979 461 534.054 461 538.979 465.925 538.979 472Z" stroke="#181818" fill="#ADD1B2"/><path d="M530.947 477.641C530.562 477.839 530.156 477.984 529.729 478.078 529.302 478.182 528.854 478.234 528.385 478.234 526.718 478.234 525.442 477.688 524.557 476.594 523.682 475.49 523.244 473.896 523.244 471.812 523.244 469.729 523.682 468.135 524.557 467.031 525.442 465.927 526.718 465.375 528.385 465.375 528.854 465.375 529.302 465.427 529.729 465.531 530.166 465.635 530.572 465.786 530.947 465.984L530.947 468.703C530.531 468.318 530.125 468.036 529.729 467.859 529.333 467.672 528.927 467.578 528.51 467.578 527.614 467.578 526.937 467.938 526.479 468.656 526.02 469.365 525.791 470.417 525.791 471.812 525.791 473.208 526.02 474.266 526.479 474.984 526.937 475.693 527.614 476.047 528.51 476.047 528.927 476.047 529.333 475.958 529.729 475.781 530.125 475.594 530.531 475.307 530.947 474.922L530.947 477.641Z"/><text font-family="Arial,Arial_MSFontService,sans-serif" font-weight="400" font-size="14" transform="translate(544.732 477)">Arithmetic</text><path d="M501.59 488 632.032 488" stroke="#181818" stroke-width="0.5" fill="none"/><path d="M514.59 501.648C514.59 503.305 513.247 504.648 511.59 504.648 509.933 504.648 508.59 503.305 508.59 501.648 508.59 499.992 509.933 498.648 511.59 498.648 513.247 498.648 514.59 499.992 514.59 501.648Z" stroke="#038048" fill="none"/><text font-family="Arial,Arial_MSFontService,sans-serif" font-weight="400" font-size="14" transform="translate(520.59 505)">String operator</text><path d="M501.59 512.297 632.032 512.297" stroke="#181818" stroke-width="0.5" fill="none"/><path d="M229.282 299.436C206.942 317.107 190.47 330.14 168.15 347.8" stroke="#808080" fill="none"/><path d="M243.4 288.27 225.56 294.731 233.005 304.142 243.4 288.27Z" stroke="#808080" fill="none"/><path d="M272.81 306.27C272.81 323.94 272.81 330.14 272.81 347.8" stroke="#808080" fill="none"/><path d="M272.81 288.27 266.81 306.27 278.81 306.27 272.81 288.27Z" stroke="#808080" fill="none"/><path d="M318.396 299.035C342.076 316.705 360.06 330.14 383.72 347.8" stroke="#808080" fill="none"/><path d="M303.97 288.27 314.808 303.844 321.985 294.226 303.97 288.27Z" stroke="#808080" fill="none"/><path d="M241.568 410.159C225.008 429.859 213 444.12 196.44 463.81" stroke="#808080" fill="none"/><path d="M253.15 396.38 236.975 406.298 246.161 414.019 253.15 396.38Z" stroke="#808080" fill="none"/><path d="M274.625 414.363C275.485 434.063 275.93 444.12 276.79 463.81" stroke="#808080" fill="none"/><path d="M273.84 396.38 268.631 414.625 280.619 414.101 273.84 396.38Z" stroke="#808080" fill="none"/><path d="M413.001 414.363C412.251 431.453 412.02 436.84 411.19 455.58" stroke="#808080" fill="none"/><path d="M413.79 396.38 407.007 414.1 418.995 414.626 413.79 396.38Z" stroke="#808080" fill="none"/><path d="M460.332 407.191C483.082 424.281 499.81 436.84 524.78 455.58" stroke="#808080" fill="none"/><path d="M445.94 396.38 456.728 411.988 463.935 402.394 445.94 396.38Z" stroke="#808080" fill="none"/></g></g></g><g><g><g><path d="M908.07 240 981.693 240 981.693 276.297 908.07 276.297Z" stroke="#181818" stroke-width="0.5" fill="#F1F1F1"/><text font-family="Arial,Arial_MSFontService,sans-serif" font-weight="400" font-size="14" transform="translate(915.07 255)">Program</text><path d="M909.07 260.297 980.693 260.297" stroke="#181818" stroke-width="0.5" fill="none"/><path d="M823.76 336.3 874.011 336.3 874.011 372.597 823.76 372.597Z" stroke="#181818" stroke-width="0.5" fill="#F1F1F1"/><text font-family="Arial,Arial_MSFontService,sans-serif" font-weight="400" font-size="14" transform="translate(830.76 351)">Input</text><path d="M824.76 356.597 873.011 356.597" stroke="#181818" stroke-width="0.5" fill="none"/><path d="M802 432.59 873.771 432.59 873.771 477.184 802 477.184Z" stroke="#181818" stroke-width="0.5" fill="#F1F1F1"/><text font-family="Arial,Arial_MSFontService,sans-serif" font-weight="400" font-size="14" transform="translate(809 448)">Variable</text><path d="M803 452.887 872.771 452.887" stroke="#181818" stroke-width="0.5" fill="none"/><text font-family="Arial,Arial_MSFontService,sans-serif" font-weight="400" font-size="14" transform="translate(808 470)">"</text><text font-family="Arial,Arial_MSFontService,sans-serif" font-weight="400" font-size="14" transform="translate(813 470)">alto</text><text font-family="Arial,Arial_MSFontService,sans-serif" font-weight="400" font-size="14" transform="translate(836 470)">"</text><path d="M919.76 336.3 970.011 336.3 970.011 372.597 919.76 372.597Z" stroke="#181818" stroke-width="0.5" fill="#F1F1F1"/><text font-family="Arial,Arial_MSFontService,sans-serif" font-weight="400" font-size="14" transform="translate(926.76 351)">Input</text><path d="M920.76 356.597 969.011 356.597" stroke="#181818" stroke-width="0.5" fill="none"/><path d="M909 432.59 980.771 432.59 980.771 477.184 909 477.184Z" stroke="#181818" stroke-width="0.5" fill="#F1F1F1"/><text font-family="Arial,Arial_MSFontService,sans-serif" font-weight="400" font-size="14" transform="translate(916 448)">Variable</text><path d="M910 452.887 979.771 452.887" stroke="#181818" stroke-width="0.5" fill="none"/><text font-family="Arial,Arial_MSFontService,sans-serif" font-weight="400" font-size="14" transform="translate(915 470)">"</text><text font-family="Arial,Arial_MSFontService,sans-serif" font-weight="400" font-size="14" transform="translate(920 470)">ancho</text><text font-family="Arial,Arial_MSFontService,sans-serif" font-weight="400" font-size="14" transform="translate(959 470)">"</text><path d="M1019.66 336.3 1066.11 336.3 1066.11 372.597 1019.66 372.597Z" stroke="#181818" stroke-width="0.5" fill="#F1F1F1"/><text font-family="Arial,Arial_MSFontService,sans-serif" font-weight="400" font-size="14" transform="translate(1026.66 351)">Print</text><path d="M1020.66 356.597 1065.11 356.597" stroke="#181818" stroke-width="0.5" fill="none"/><path d="M1015.43 436.74 1102.34 436.74 1102.34 473.037 1015.43 473.037Z" stroke="#181818" stroke-width="0.5" fill="#F1F1F1"/><text font-family="Arial,Arial_MSFontService,sans-serif" font-weight="400" font-size="14" transform="translate(1022.43 452)">Arithmetic</text><path d="M1016.43 457.037 1101.34 457.037" stroke="#181818" stroke-width="0.5" fill="none"/><path d="M942 537.19 1013.77 537.19 1013.77 581.784 942 581.784Z" stroke="#181818" stroke-width="0.5" fill="#F1F1F1"/><text font-family="Arial,Arial_MSFontService,sans-serif" font-weight="400" font-size="14" transform="translate(949 552)">Variable</text><path d="M943 557.487 1012.77 557.487" stroke="#181818" stroke-width="0.5" fill="none"/><text font-family="Arial,Arial_MSFontService,sans-serif" font-weight="400" font-size="14" transform="translate(948 574)">"</text><text font-family="Arial,Arial_MSFontService,sans-serif" font-weight="400" font-size="14" transform="translate(953 574)">alto</text><text font-family="Arial,Arial_MSFontService,sans-serif" font-weight="400" font-size="14" transform="translate(976 574)">"</text><path d="M1048.39 541.33 1069.39 541.33 1069.39 577.627 1048.39 577.627Z" stroke="#181818" stroke-width="0.5" fill="#F1F1F1"/><text font-family="Arial,Arial_MSFontService,sans-serif" font-weight="400" font-size="14" transform="translate(1055.39 556)">*</text><path d="M1049.39 561.627 1068.39 561.627" stroke="#181818" stroke-width="0.5" fill="none"/><path d="M1104 537.19 1175.77 537.19 1175.77 581.784 1104 581.784Z" stroke="#181818" stroke-width="0.5" fill="#F1F1F1"/><text font-family="Arial,Arial_MSFontService,sans-serif" font-weight="400" font-size="14" transform="translate(1111 552)">Variable</text><path d="M1105 557.487 1174.77 557.487" stroke="#181818" stroke-width="0.5" fill="none"/><text font-family="Arial,Arial_MSFontService,sans-serif" font-weight="400" font-size="14" transform="translate(1110 574)">"</text><text font-family="Arial,Arial_MSFontService,sans-serif" font-weight="400" font-size="14" transform="translate(1115 574)">ancho</text><text font-family="Arial,Arial_MSFontService,sans-serif" font-weight="400" font-size="14" transform="translate(1154 574)">"</text><path d="M846.92 373.04C845.06 389.64 842.28 414.54 840.3 432.32" stroke="#808080" fill="none"/><path d="M944.89 373.04C944.89 389.64 944.89 414.54 944.89 432.32" stroke="#808080" fill="none"/><path d="M1045.75 373.04C1048.66 390.96 1053.15 418.58 1056.05 436.44" stroke="#808080" fill="none"/><path d="M1045.14 473.29C1031.33 490.79 1010.01 517.8 995.08 536.7" stroke="#808080" fill="none"/><path d="M1058.89 473.29C1058.89 492.16 1058.89 522.1 1058.89 540.99" stroke="#808080" fill="none"/><path d="M1072.63 473.29C1086.44 490.79 1107.76 517.8 1122.69 536.7" stroke="#808080" fill="none"/><path d="M927.28 276.44C910.06 293.35 883.99 318.96 866.71 335.94" stroke="#808080" fill="none"/><path d="M944.89 276.44C944.89 293.35 944.89 318.96 944.89 335.94" stroke="#808080" fill="none"/><path d="M962.86 276.44C980.43 293.35 1007.05 318.96 1024.69 335.94" stroke="#808080" fill="none"/></g></g></g><text font-family="Aptos,Aptos_MSFontService,sans-serif" font-weight="400" font-size="24" transform="translate(858.787 141)">input alto;</text><text font-family="Aptos,Aptos_MSFontService,sans-serif" font-weight="400" font-size="24" transform="translate(858.787 170)">input ancho;</text><text font-family="Aptos,Aptos_MSFontService,sans-serif" font-weight="400" font-size="24" transform="translate(858.787 199)">print alto * ancho;</text></g></svg>